PathFileType	4	(X/Y/Z)	C:/Users/beibeiliu/ov580/test_trc/User1\sequence.3_training_dense_right.trc
DataRate	CameraRate	NumFrames	NumMarkers	Units	OrigDataRate	OrigDataStartFrame	OrigNumFrames
120	120	17	19	mm	120	33	64
Frame#	Time	ThumbCMC			ThumbMCP			ThumbIP			ThumbTip			IndexMCP			IndexPIP			IndexTip			MiddleMCP			MiddlePIP			MiddleTip			RingMCP			RingPIP			RingTip			PinkyMCP			PinkyPIP			PinkyTip			BackHand1			BackHand2			BackHand3	
		X0	Y0	Z0	X1	Y1	Z1	X2	Y2	Z2	X3	Y3	Z3	X4	Y4	Z4	X5	Y5	Z5	X6	Y6	Z6	X7	Y7	Z7	X8	Y8	Z8	X9	Y9	Z9	X10	Y10	Z10	X11	Y11	Z11	X12	Y12	Z12	X13	Y13	Z13	X14	Y14	Z14	X15	Y15	Z15	X16	Y16	Z16	X17	Y17	Z17	X18	Y18	Z18	
32	0.266667	148.871	96.4462	94.1604	116.776	110.136	68.2417	95.1626	104.974	48.1033	75.5663	80.4922	42.3248	121.884	76.3688	19.581	92.1085	85.4649	36.2553	112.774	82.9662	61.2818	109.752	53.5301	24.2519	83.9512	69.0092	45.2356	108.52	65.6947	76.6039	98.0769	38.2715	39.5605	82.6176	54.7218	64.1456	110.228	50.5179	86.056	97.0278	22.4651	56.3925	85.3067	39.1144	79.8714	117.781	42.6954	93.0005	150.086	22.4594	71.705	159.824	24.2746	105.202	166.265	55.4444	79.4562	
33	0.275	168.649	90.9889	88.9459	147.774	112.541	63.4802	128.501	111.739	39.5323	103.321	94.0297	24.6093	148.415	76.4807	11.6475	121.256	88.4958	21.7615	136.469	83.3273	53.8736	130.893	51.2936	18.7557	107.207	75.678	32.2109	124.528	74.708	66.9329	111.838	44.2914	31.3546	98.9757	63.8037	52.9182	118.291	56.6138	77.9283	105.186	31.2297	48.1534	97.2213	51.7889	67.8324	125.48	47.5299	90.9376	157.971	19.2267	72.1712	163.278	23.3111	104.994	180.47	52.0424	84.1768	
34	0.283333	185.076	82.6227	85.4587	169.175	102.481	54.0341	156.425	98.7301	32.2668	134.551	84.6792	9.83943	181.155	60.4465	10.6062	153.816	80.8709	13.5926	160.874	78.61	46.4078	164.555	46.8623	9.82018	139.028	66.0623	17.9537	149.056	66.8204	58.2883	145.714	35.037	22.097	126.478	55.0594	36.7807	144.449	53.6093	69.2527	133.028	22.6259	38.0846	121.487	44.3242	53.7922	143.622	44.9009	78.1947	175.415	12.3934	74.1787	175.911	18.9027	109.057	198.335	43.628	84.9007	
35	0.291667	190.353	78.9774	89.8063	176.087	92.2673	50.7824	168.548	90.1697	24.8625	158.862	68.6078	6.02133	209.617	66.0785	9.93052	179.473	67.8002	7.27927	176.296	73.1865	41.7503	196.599	41.0536	6.75177	165.292	54.2675	10.9164	164.812	54.9046	50.3323	179.927	22.6242	17.5662	154.45	44.2331	28.8689	163.892	41.1139	63.1266	168.076	11.4749	28.6507	151.451	28.2373	38.9485	164.205	34.2468	69.8405	208.956	12.8069	73.9979	197.78	14.2132	110.672	216.076	43.0995	90.4833	
36	0.3	182.864	78.3209	87.2594	164.179	82.1869	54.2174	164.123	78.6694	20.5091	164.733	57.3437	1.7808	212.728	77.9072	13.4107	182.159	71.3048	5.61337	176.997	65.1231	39.8595	211.711	56.6511	8.67777	179.625	49.3537	7.73614	172.185	50.5862	48.6854	205.951	30.548	16.1761	172.224	32.2406	25.7701	178.335	35.0535	58.418	203.099	8.97488	28.0183	172.624	17.2073	38.8378	177.757	28.6806	64.658	229.297	29.3546	74.1815	220.848	25.8216	106.12	219.553	59.3045	95.3984	
37	0.308333	158.989	68.2837	91.6816	139.386	64.9582	54.9511	143.496	60.5165	20.9304	158.557	42.58	3.32604	183.924	88.6011	17.1239	166.278	63.9972	6.90321	158.186	59.9247	42.4682	197.372	68.8055	10.0078	174.294	43.1379	9.90017	170.824	39.08	49.7847	206.259	45.7537	16.3338	177.271	26.4176	26.8024	178.951	30.9173	57.8122	214.143	24.8627	27.3728	187.384	14.1322	38.8112	186.805	26.3492	68.6736	227.642	56.8861	76.6491	223.88	46.5944	106.96	201.718	77.9996	91.8046	
38	0.316667	135.633	53.7325	95.2216	119.585	38.8629	59.8571	124.756	32.9131	27.3591	143.31	20.1195	10.8407	147.456	71.6013	14.17	139.411	41.9027	13.0955	140.369	44.6825	48.9105	171.666	60.8712	11.8511	156.063	29.9625	14.5657	154.768	29.3457	56.1492	183.246	43.394	17.7431	171.978	16.3563	29.2376	170.311	24.8506	63.3227	203.516	34.3135	30.5877	187.909	11.1349	40.2432	180.405	21.8073	70.4184	201.901	69.7013	74.6539	201.766	63.5125	106.638	172.01	80.7053	92.3196	
39	0.325	113.838	46.846	102.019	99.8183	27.6309	67.1524	104.17	17.4898	40.3552	119.531	2.53637	24.3324	119.033	55.9538	23.1443	112.055	22.9922	22.1636	115.91	32.3873	58.2428	139.448	41.7648	14.4813	130.71	10.0739	28.4012	136.337	21.7755	65.8328	159.35	23.6798	22.4738	145.979	2.4384	42.7658	150.825	19.6838	72.7094	175.64	19.8819	34.2466	163.024	-0.42583	53.3342	162.585	18.6579	80.6295	183.051	61.3131	70.4151	187.022	57.503	106.835	150.329	74.5024	91.3732	
40	0.333333	106.2	61.4933	103.533	80.5153	43.6679	80.1603	74.2345	28.2829	54.8513	85.8015	6.84635	38.7164	100.698	53.0227	26.1038	87.1121	24.1068	35.0917	101.427	40.4915	66.71	118.637	28.5547	21.3271	96.8088	9.68258	39.0348	111.198	24.6364	74.9904	131.262	9.3729	32.4071	110.314	-1.43969	56.9991	126.226	15.082	81.4731	144.538	-4.48428	44.3444	126.653	-8.91181	69.4796	137.275	13.9473	90.0318	167.399	42.6234	67.8568	177.396	44.5621	103.179	148.527	65.6535	88.5126	
41	0.341667	119.814	78.7919	98.9022	84.5249	80.0731	80.8272	70.6702	63.3327	56.7796	63.3129	35.5021	46.0084	99.6181	62.9775	24.0488	73.8095	48.5533	39.5197	93.9441	56.9836	66.754	98.138	33.2551	24.4727	75.672	28.4848	49.0855	101.863	38.8616	78.3747	99.0185	10.8921	39.7777	80.9595	17.5492	64.1019	110.304	26.613	85.924	109.362	-6.1344	54.4802	94.0651	8.58982	79.3749	115.582	20.2232	95.2701	156.779	22.5566	69.9978	164.636	25.5932	100.685	153.69	60.3568	83.8272	
42	0.35	145.117	80.9623	88.18	115.985	96.6239	69.3268	93.512	90.067	45.682	72.4561	67.773	37.5634	115.216	61.2431	16.0582	89.7215	66.0055	30.13	109.734	68.743	59.1088	102.399	37.9367	21.5305	80.1879	50.0042	41.3565	105.604	53.856	73.9747	96.4525	25.7729	38.2661	80.4136	41.4507	62.8333	105.849	42.8933	82.8947	92.4754	6.32465	56.6484	81.8163	27.0905	77.1432	112.312	31.3151	94.3319	148.782	11.337	72.5857	157.465	13.6265	103.177	163.852	45.9829	77.0694	
43	0.358333	168.768	78.3652	83.6069	145.331	92.7087	58.7867	127.218	91.0793	35.1657	105.476	76.8135	23.9582	150.07	52.8349	11.0788	120.467	71.2277	19.8765	135.021	70.8217	50.0109	133.644	34.9387	15.3491	108.819	58.2857	26.8823	124.616	59.3346	62.0239	117.894	24.2851	28.5129	102.044	48.4851	50.1218	120.397	42.2509	75.2821	105.484	11.2436	46.2909	100.017	35.3548	63.1577	123.583	33.4189	85.2452	159.593	6.24866	73.3385	165.254	9.14649	104.881	179.154	34.3986	82.6354	
44	0.366667	182.418	68.2776	80.3648	163.92	82.4624	53.6841	152.046	79.3358	26.5757	134.758	62.5436	8.82596	183.069	48.9271	4.86393	153.978	59.3014	7.39245	160.613	57.8883	44.583	169.147	27.3871	7.45513	139.688	43.3037	15.3508	149.018	49.6584	52.7377	149.999	14.8858	19.1053	130.63	36.7849	35.6867	144.371	34.3371	64.3567	143.023	1.85861	35.9056	127.48	22.6569	50.4864	148.722	27.1689	72.2281	188.086	-1.69089	69.1198	183.004	5.02338	107.789	201.77	33.1667	85.3163	
45	0.375	182.746	63.5144	81.0815	163.907	68.9802	47.3752	158.494	64.1208	18.5916	153.481	39.8341	-2.28663	205.959	51.5729	9.03558	172.437	50.2606	3.59632	173.146	50.7398	41.1575	201.355	28.3533	5.38025	167.562	31.3461	4.93106	165.451	34.568	46.3065	191.424	7.8965	15.9772	158.488	17.2331	26.4086	166.11	22.0497	58.0912	181.667	-12.2697	28.0007	161.496	2.87183	37.2454	168.684	13.486	69.3636	219.379	7.37673	70.6213	211.22	3.05859	107.759	217.594	43.3275	84.9175	
46	0.383333	162.095	56.0722	82.4311	146.999	48.6767	49.0993	147.046	41.1592	16.4497	155.76	22.8358	0.947719	187.501	65.8227	11.4071	167.628	40.9529	4.01861	167.558	40.0056	42.3462	202.442	41.8726	6.96158	172.138	23.6973	6.02636	169.787	22.1251	45.0197	205.745	20.169	14.6163	174.114	6.39915	24.1685	177.853	12.4982	56.9523	210.111	-4.48854	24.7922	182.896	-7.49606	39.9873	184.984	8.65105	65.1418	231.182	28.4318	67.455	225.085	22.5606	103.126	207.359	55.1844	87.5391	
47	0.391667	143.802	41.0803	89.725	124.704	27.7938	53.4778	127.144	19.9769	24.6258	147.401	7.94304	6.07621	155.404	61.4163	15.0415	148.213	28.085	8.43446	143.99	28.41	43.118	179.309	42.6322	7.56936	158.897	13.2046	12.76	158.179	15.3897	52.1355	191.982	26.0432	16.5222	172.326	-2.00784	30.0755	173.718	7.03823	60.0643	205.471	9.35129	27.1831	184.103	-4.26249	40.1969	180.755	6.37187	69.1425	214.073	47.6342	71.0583	209.74	39.461	107.298	180.308	60.3378	92.549	
48	0.4	121.256	36.6275	95.9554	101.314	18.5248	65.5463	103.222	8.74909	34.2285	115.809	-5.76267	16.3807	128.051	46.0111	14.2299	115.55	19.2095	14.0071	121.448	19.4398	50.1727	150.209	30.2146	11.3221	130.914	3.39332	19.8808	134.586	8.77268	59.6591	161.648	15.265	19.6044	146.008	-9.66845	34.9909	154.186	4.04646	70.0056	181.186	1.30017	31.8026	162.158	-17.1268	48.2298	159.329	1.48644	74.7731	190.582	41.7185	71.1279	193.503	38.4936	103.991	159.619	57.7118	92.3266	
